<svg width="200" height="96" viewBox="0 0 200 96" fill="none" xmlns="http://www.w3.org/2000/svg">
<mask id="mask0_118_5372" style="mask-type:luminance" maskUnits="userSpaceOnUse" x="0" y="0" width="60" height="96">
<rect width="95.4947" height="58.9421" transform="matrix(0 1 1 0 0.514801 0)" fill="white"/>
</mask>
<g mask="url(#mask0_118_5372)">
<path fill-rule="evenodd" clip-rule="evenodd" d="M14.1369 48.7579C14.1369 40.9256 11.1825 33.7872 6.33006 28.391C2.40265 24.0239 1.62245 17.6708 4.55757 12.5823L4.89004 12.0065C7.28181 7.85956 11.7026 5.30524 16.4862 5.30524H16.7096C22.5728 5.30524 27.6837 9.14578 29.4951 14.7278C33.4599 26.9465 44.9282 35.7791 58.4569 35.7791C60.7358 35.7791 62.9552 35.5275 65.0909 35.0517C70.8399 33.7698 76.7606 36.2997 79.7055 41.4056L80.0809 42.0562C82.473 46.2032 82.473 51.3122 80.0809 55.4591L79.7055 56.1101C76.7606 61.2156 70.8399 63.7459 65.0909 62.464C62.9552 61.9879 60.7358 61.7366 58.4569 61.7366C44.9282 61.7366 33.4599 70.5692 29.4951 82.7879C27.6837 88.3696 22.5728 92.2105 16.7096 92.2105H16.4862C11.7026 92.2105 7.28181 89.6558 4.89004 85.5088L4.55757 84.9331C1.62245 79.8445 2.40265 73.4918 6.33006 69.1243C11.1825 63.7286 14.1369 56.5902 14.1369 48.7579Z" fill="#002EFF"/>
</g>
<mask id="mask1_118_5372" style="mask-type:luminance" maskUnits="userSpaceOnUse" x="140" y="0" width="60" height="96">
<rect x="199.507" width="95.4947" height="58.9421" transform="rotate(90 199.507 0)" fill="white"/>
</mask>
<g mask="url(#mask1_118_5372)">
<path fill-rule="evenodd" clip-rule="evenodd" d="M185.885 48.7579C185.885 40.9256 188.84 33.7872 193.692 28.391C197.619 24.0239 198.4 17.6708 195.464 12.5823L195.132 12.0065C192.74 7.85956 188.319 5.30524 183.536 5.30524H183.312C177.449 5.30524 172.338 9.14578 170.527 14.7278C166.562 26.9465 155.094 35.7791 141.565 35.7791C139.286 35.7791 137.067 35.5275 134.931 35.0517C129.182 33.7698 123.261 36.2997 120.317 41.4056L119.941 42.0562C117.549 46.2032 117.549 51.3122 119.941 55.4591L120.317 56.1101C123.261 61.2156 129.182 63.7459 134.931 62.464C137.067 61.9879 139.286 61.7366 141.565 61.7366C155.094 61.7366 166.562 70.5692 170.527 82.7879C172.338 88.3696 177.449 92.2105 183.312 92.2105H183.536C188.319 92.2105 192.74 89.6558 195.132 85.5088L195.464 84.9331C198.4 79.8445 197.619 73.4918 193.692 69.1243C188.84 63.7286 185.885 56.5902 185.885 48.7579Z" fill="#002EFF"/>
</g>
<rect x="29.2191" y="35.4407" width="129.471" height="26.4407" fill="#002EFF"/>
</svg>
